<svg id="Layer_1" xmlns="http://www.w3.org/2000/svg" viewBox="0 0 384 88"><style>.st0,.st1{fill:#fff}.st1{fill-rule:evenodd;clip-rule:evenodd}</style><path class="st0" d="M104.9 35.93c0-4.72 0-5.57-.06-6.54-.06-1.03-.32-1.51-1.37-1.73-.26-.06-.8-.09-1.08-.09-.13 0-.26-.06-.26-.18 0-.18.16-.24.51-.24 1.44 0 3.32.09 3.51.09.29 0 2.14-.09 3.09-.09.35 0 .51.06.51.24 0 .12-.13.18-.26.18-.22 0-.41.03-.8.09-.86.15-1.12.67-1.18 1.73-.06.97-.06 1.82-.06 6.54v1.82h.13c.54-.58 6.31-6.15 7.46-7.33.89-.88 1.72-1.67 1.72-2.18 0-.36-.16-.54-.41-.64-.16-.06-.29-.12-.29-.24 0-.15.16-.21.38-.21.64 0 1.63.09 2.39.09.16 0 2.26-.09 3.06-.09.35 0 .48.06.48.21s-.06.21-.32.21c-.48 0-1.15.15-1.79.42-1.31.54-2.01 1.3-3.44 2.6-.8.73-6.35 5.87-7.02 6.63.83.88 7.46 7.39 8.77 8.54 2.68 2.36 3.22 2.85 4.75 3.45.83.33 1.75.39 1.98.39.22 0 .41.06.41.18 0 .15-.16.24-.7.24h-1.63c-.89 0-1.5 0-2.2-.06-1.69-.15-2.49-.82-3.86-1.85-1.44-1.12-8.2-8.05-9.73-9.84h-.16v2.97c0 2.91 0 5.3.16 6.57.1.88.29 1.54 1.24 1.67.45.06.96.12 1.24.12.19 0 .26.09.26.18 0 .15-.16.24-.51.24-1.56 0-3.41-.09-3.67-.09-.26 0-2.1.09-3.06.09-.35 0-.51-.06-.51-.24 0-.09.06-.18.26-.18.29 0 .67-.06.96-.12.64-.12.8-.79.92-1.67.16-1.27.16-3.66.16-6.57v-5.31zM131.8 46.09h-2.16V31.24h2.16v14.85zM155.67 46.09h-2.16V34.53h-.04l-4.62 5.75h-.35l-4.62-5.75h-.04v11.56h-2.16V31.24h2.02l4.97 6.1 4.99-6.1h2v14.85zM165.5 31.24h4.36c3.23 0 4.62 1.92 4.62 3.79 0 1.55-.73 2.55-2.29 3.18v.04c2.24.41 3.61 1.87 3.61 3.88 0 1.83-1.39 3.96-5.15 3.96h-5.15V31.24zm2.16 6.36h1.43c2.13 0 3.17-.78 3.17-2.37 0-1.11-.64-2.07-2.62-2.07h-1.98v4.44zm0 6.58h2.71c2.53 0 3.21-1.24 3.21-2.35 0-1.35-1.06-2.31-3.32-2.31h-2.6v4.66zM193.01 33.16h-6.36v4.49h6.14v1.92h-6.14v4.62h6.56v1.92h-8.71V31.24h8.52v1.92zM205.92 31.24c3.04 0 4.93 1.59 4.93 4.16 0 1.72-.9 3-2.51 3.64 1.36.89 2.2 2.26 3.34 4.11.64 1.02 1.01 1.52 2.05 2.94h-2.57l-1.98-3.05c-1.98-3.05-2.88-3.4-3.98-3.4h-.9v6.44h-2.16V31.24h3.78zm-1.63 6.49h1.39c2.31 0 2.97-1.18 2.95-2.42-.02-1.39-.86-2.24-2.95-2.24h-1.39v4.66zM224.12 44.18h6.78v1.92h-8.93V31.24h2.16v12.94zM247.88 33.16h-6.36v4.49h6.14v1.92h-6.14v4.62h6.56v1.92h-8.71V31.24h8.51v1.92zM266.01 31.24h2.6l-5.57 7.01v7.84h-2.16v-7.86l-5.57-6.99h2.6l4.03 5.12 4.07-5.12zM299.1 48.27c-1.15.58-3.32 1.03-5.01 1.03-8.83 0-12.47-6.45-12.47-11.9 0-4.9 3.76-11.84 12.57-11.84 7.18 0 12.53 4.33 12.53 11.35 0 5.33-3.54 8.87-5.64 10.17l6.54 3.21c6.98 3.42 11.83 3.57 13.43 3.57 1.59 0 4.08-.33 6.28-1.18.19-.06.35-.12.45-.12.13 0 .19.09.19.18 0 .12-.06.21-.26.3-1.82.79-5.39 2.09-10.11 2.09-3.86 0-7.97-1.36-13.14-4.06l-5.36-2.8zm-4.24-.12c2.87 0 8.8-1.57 8.8-10.38 0-7.27-4.66-11.17-9.7-11.17-5.33 0-9.31 3.33-9.31 9.96 0 7.05 4.47 11.59 10.21 11.59z"/><g><path class="st0" d="M327.95 40.26c0 3.64-2.2 6.03-6.67 6.03-3.17 0-6.25-1.76-6.25-5.81v-9.23h2.16v8.77c0 1.68.22 2.37.9 3.05.86.85 1.94 1.26 3.23 1.26 1.65 0 2.84-.52 3.52-1.2.77-.76.95-1.85.95-3.24v-8.64h2.16v9.01zM346.02 33.16h-6.36v4.49h6.14v1.92h-6.14v4.62h6.56v1.92h-8.71V31.24h8.52v1.92zM362.21 34.51c-1.28-1.2-2.51-1.55-3.52-1.55-1.39 0-2.38.72-2.38 1.76 0 2.85 6.49 2.81 6.49 7.53 0 2.33-1.78 4.03-4.2 4.03-1.63 0-2.95-.44-4.2-1.37v-2.7c1.1 1.39 2.49 2.16 3.96 2.16 1.67 0 2.44-1.05 2.44-1.87 0-3.07-6.49-3.42-6.49-7.49 0-2.42 1.8-3.96 4.55-3.96 1.14 0 2.29.35 3.34 1.05v2.41zM383 33.16h-5.19v12.93h-2.16V33.16h-5.19v-1.92H383v1.92z"/></g><g><path class="st0" d="M139.93 66.53h2.84c2.11 0 3.01 1.25 3.01 2.47 0 1.01-.47 1.66-1.49 2.07v.03c1.46.27 2.35 1.22 2.35 2.52 0 1.19-.9 2.58-3.35 2.58h-3.35v-9.67zm1.41 4.14h.93c1.39 0 2.06-.51 2.06-1.55 0-.72-.42-1.35-1.7-1.35h-1.29v2.9zm0 4.28h1.76c1.65 0 2.09-.81 2.09-1.53 0-.88-.69-1.5-2.16-1.5h-1.69v3.03zM157.84 67.78h-4.14v2.92h4v1.25h-4v3.01h4.27v1.25h-5.67v-9.67h5.54v1.24zM169.65 66.53h1.69l-3.63 4.56v5.1h-1.4v-5.12l-3.63-4.55h1.69l2.62 3.33 2.66-3.32z"/></g><g><path class="st0" d="M180.38 66.4c3.22 0 5.26 2.27 5.26 4.96 0 2.61-1.98 4.96-5.29 4.96-3.2 0-5.22-2.34-5.22-4.96 0-2.67 2.08-4.96 5.25-4.96zm0 8.65c2.19 0 3.81-1.57 3.81-3.69 0-2.13-1.62-3.69-3.81-3.69-2.18 0-3.8 1.56-3.8 3.69 0 2.12 1.62 3.69 3.8 3.69z"/></g><g><path class="st0" d="M200.68 76.2h-1.2l-6.53-7.44v7.44h-1.32v-9.67h1.12l6.62 7.49v-7.49h1.32v9.67zM207.14 66.53h3.8c3.61 0 5.2 2.55 5.2 4.83 0 2.48-1.96 4.83-5.19 4.83h-3.81v-9.66zm1.4 8.42h2.23c3.18 0 3.91-2.4 3.91-3.59 0-1.94-1.25-3.59-3.98-3.59h-2.16v7.18z"/></g><g><path class="st0" d="M237.49 76.2h-1.43l-1.3-2.85h-4.16l-1.23 2.85h-1.43l4.2-9.73h.99l4.36 9.73zm-6.35-4.1h3.04l-1.58-3.5-1.46 3.5zM242.87 66.53h3.8c3.61 0 5.2 2.55 5.2 4.83 0 2.48-1.96 4.83-5.19 4.83h-3.81v-9.66zm1.41 8.42h2.24c3.18 0 3.91-2.4 3.91-3.59 0-1.94-1.25-3.59-3.98-3.59h-2.16v7.18z"/></g><g><path class="st0" d="M260.63 76.28h-.29l-4.23-9.75h1.4l2.94 6.79 2.92-6.79h1.39l-4.13 9.75zM275.69 67.78h-4.14v2.92h4v1.25h-4v3.01h4.27v1.25h-5.67v-9.67h5.55v1.24zM290.64 76.2h-1.2l-6.53-7.44v7.44h-1.32v-9.67h1.12l6.62 7.49v-7.49h1.32v9.67zM304.43 67.78h-3.38v8.42h-1.4v-8.42h-3.38v-1.25h8.17v1.25zM318.25 72.4c0 2.37-1.43 3.93-4.34 3.93-2.06 0-4.07-1.15-4.07-3.79v-6.01h1.4v5.71c0 1.09.14 1.55.59 1.99.56.55 1.26.82 2.11.82 1.08 0 1.85-.34 2.29-.78.5-.5.62-1.21.62-2.11v-5.63h1.4v5.87zM326.97 66.53c1.98 0 3.21 1.04 3.21 2.71 0 1.12-.59 1.96-1.63 2.37.89.58 1.43 1.47 2.18 2.68.42.67.66.99 1.33 1.91h-1.68l-1.29-1.99c-1.29-1.98-1.88-2.21-2.59-2.21h-.59v4.2h-1.4v-9.67h2.46zm-1.06 4.22h.9c1.5 0 1.93-.77 1.92-1.57-.01-.91-.56-1.46-1.92-1.46h-.9v3.03zM342.98 67.78h-4.14v2.92h4v1.25h-4v3.01h4.27v1.25h-5.67v-9.67h5.55v1.24z"/></g><g><path class="st1" d="M1 1s22.11 35.81 50.18 47.06c28.69 11.5 53.62 9.85 61.43 18.21 7.81 8.35 1.22 17.52 1.22 17.52s3.82-10.99-9.37-14.77c-13.19-3.78-44.8-6.26-66.69-22.5C1.89 19.91 1 1 1 1zM40.85 56.73c12.1 5.17 26.57 8.05 27.9 8.31-1.52-.13-18.63 1.45-30.79-4.44C26.41 55 17.3 39.57 17.3 39.57s12.76 12.54 23.55 17.16zm27.91 8.3c.05 0 .08.01.1.02l-.1-.02zM73.6 69.58c0 .01-11.7 6.53-20.01 6.08-9.26-.5-18.97-6.44-18.59-6.57 0 0 11.42 3.55 19.31 3.55 7.88.01 19.29-3.06 19.29-3.06z"/><path d="M83.85 77.07c.67-.19-8.36 7.12-18.61 9.49-8.39 1.94-19.47-3.21-19.47-3.21s12.01 1.42 19.77.04c7.75-1.37 18.31-6.32 18.31-6.32z" fill-rule="evenodd" clip-rule="evenodd" fill="#00a0af"/></g></svg>